# xmcd
#
# Track frame offsets: 
#        182
#        15775
#        31305
#        50130
#        64682
#        82870
#        98245
#        116745
#        135387
#        151087
#
# Disc length: 2225 seconds
#
# Revision: 4
# Processed by: cddbd v1.5.2PL0 Copyright (c) Steve Scherf et al.
# Submitted via: ExactAudioCopy v1.0b1
#
DISCID=6e08af0a
DTITLE=Juice Newton - Ten Best Series
DYEAR=1991
DGENRE=Country
TTITLE0=It's A Heartache
TTITLE1=Any Way That You Want Me
TTITLE2=Angel Of The Morning
TTITLE3=Love's Been A Little Bit Hard On Me
TTITLE4=Break It To Me Gently
TTITLE5=Queen Of Hearts
TTITLE6=The Sweetest Thing (I've Ever Known)
TTITLE7=Heart Of The Night
TTITLE8=Stranger At My Door
TTITLE9=Ride 'Em Cowboy
EXTD=
EXTT0=
EXTT1=
EXTT2=
EXTT3=
EXTT4=
EXTT5=
EXTT6=
EXTT7=
EXTT8=
EXTT9=
PLAYORDER=
